<?xml version="1.0" encoding="UTF-8" standalone="no"?>
<!-- Created with Inkscape (http://www.inkscape.org/) -->

<svg
   width="14.317mm"
   height="14.316996mm"
   viewBox="0 0 14.317 14.316996"
   version="1.1"
   id="svg1"
   inkscape:version="1.3 (0e150ed6c4, 2023-07-21)"
   sodipodi:docname="raghavlogo.svg"
   xmlns:inkscape="http://www.inkscape.org/namespaces/inkscape"
   xmlns:sodipodi="http://sodipodi.sourceforge.net/DTD/sodipodi-0.dtd"
   xmlns="http://www.w3.org/2000/svg"
   xmlns:svg="http://www.w3.org/2000/svg">
  <sodipodi:namedview
     id="namedview1"
     pagecolor="#ffffff"
     bordercolor="#cccccc"
     borderopacity="1"
     inkscape:showpageshadow="0"
     inkscape:pageopacity="1"
     inkscape:pagecheckerboard="0"
     inkscape:deskcolor="#d1d1d1"
     inkscape:document-units="mm"
     inkscape:zoom="3.1108586"
     inkscape:cx="289.79138"
     inkscape:cy="526.70347"
     inkscape:window-width="1920"
     inkscape:window-height="1111"
     inkscape:window-x="-9"
     inkscape:window-y="-9"
     inkscape:window-maximized="1"
     inkscape:current-layer="layer1" />
  <defs
     id="defs1" />
  <g
     inkscape:label="Layer 1"
     inkscape:groupmode="layer"
     id="layer1"
     transform="translate(-60.556699,-130.21389)">
    <rect
       style="fill:#ffffff;fill-opacity:1;stroke-width:0.337091;stroke-miterlimit:500"
       id="rect3"
       width="14.317"
       height="14.317"
       x="60.556702"
       y="130.2139"
       inkscape:export-filename="logo.svg"
       inkscape:export-xdpi="300"
       inkscape:export-ydpi="300" />
    <g
       id="g4"
       transform="translate(-1.4614529e-4,-0.2032321)">
      <path
         id="rect1"
         style="fill:#faa41b;fill-opacity:1;stroke-width:0.564989;stroke-miterlimit:500"
         d="m 62.369421,131.6517 v 7.69462 h 1.97404 v -2.82153 H 64.992 v -1.33222 h 3.316594 c 0.0096,-0.0125 0.02018,-0.0245 0.02945,-0.0372 0.265272,-0.35829 0.397909,-0.82165 0.397909,-1.39009 0,-0.41341 -0.08613,-0.7562 -0.258383,-1.02836 -0.168809,-0.27561 -0.397908,-0.49954 -0.687296,-0.6718 -0.285943,-0.17225 -0.592557,-0.28422 -0.919841,-0.3359 -0.327283,-0.0517 -0.718302,-0.0775 -1.173055,-0.0775 z m 5.939173,3.54087 c -0.260321,0.34147 -0.625225,0.62751 -1.097091,0.85679 l 2.568319,3.29696 h -2.423625 l -2.098063,-2.82153 H 64.992 v 6.97477 h 8.069275 v -8.30699 z m -3.965133,-2.12494 h 0.718302 c 0.237712,0 0.44614,0.007 0.625285,0.0207 0.179145,0.0103 0.335897,0.0431 0.470256,0.0982 0.192925,0.0792 0.329006,0.18776 0.408243,0.32556 0.07924,0.13781 0.118856,0.30317 0.118856,0.4961 0,0.21704 -0.03273,0.39101 -0.09819,0.52193 -0.06201,0.12747 -0.16192,0.2446 -0.299723,0.3514 -0.144694,0.11024 -0.323839,0.18086 -0.537435,0.21187 -0.213596,0.031 -0.478869,0.0465 -0.795817,0.0465 h -0.609777 z" />
      <path
         style="fill:#ff5555;fill-opacity:1;stroke-width:0.858999;stroke-miterlimit:500"
         d="m 67.356195,139.34632 -2.098061,-2.82153 H 64.992 v 6.97477 h 8.069273 v -8.30699 l -4.72323,-0.0372 -1.12654,0.89399 2.568318,3.29696 z"
         id="path4" />
    </g>
  </g>
</svg>
